<?xml version="1.0" encoding="UTF-8"?>
<!DOCTYPE svg PUBLIC "-//W3C//DTD SVG 1.1//EN" "http://www.w3.org/Graphics/SVG/1.1/DTD/svg11.dtd">
<svg xmlns="http://www.w3.org/2000/svg" xmlns:xlink="http://www.w3.org/1999/xlink" version="1.1" width="130px" height="130px" viewBox="-0.5 -0.5 130 130"><defs/><g><path d="M 5 45 L -13.5 45 Q -15 45 -13.94 43.94 L 3.94 26.06 Q 5 25 6.5 25 L 43.5 25 Q 45 25 43.94 26.06 L 26.06 43.94 Q 25 45 23.5 45 Z" fill="#f8cecc" stroke="#b85450" stroke-width="10" stroke-miterlimit="10" transform="rotate(-90,15,35)" pointer-events="all"/><path d="M 25 25 L 6 25 Q 5 25 5.71 24.29 L 24.29 5.71 Q 25 5 26 5 L 64 5 Q 65 5 64.29 5.71 L 45.71 24.29 Q 45 25 44 25 Z" fill="#d5e8d4" stroke="#82b366" stroke-width="10" stroke-miterlimit="10" transform="translate(35,0)scale(-1,1)translate(-35,0)" pointer-events="all"/><path d="M 5 85 L -14 85 Q -15 85 -14.29 84.29 L 4.29 65.71 Q 5 65 6 65 L 44 65 Q 45 65 44.29 65.71 L 25.71 84.29 Q 25 85 24 85 Z" fill="#f8cecc" stroke="#b85450" stroke-width="10" stroke-miterlimit="10" transform="rotate(-90,15,75)" pointer-events="all"/><path d="M 25 105 L 7 105 Q 5 105 6.41 103.59 L 23.59 86.41 Q 25 85 27 85 L 63 85 Q 65 85 63.59 86.41 L 46.41 103.59 Q 45 105 43 105 Z" fill="#f8cecc" stroke="#b85450" stroke-width="10" stroke-miterlimit="10" transform="rotate(-90,35,95)" pointer-events="all"/><path d="M 65 25 L 45.5 25 Q 45 25 45.35 24.65 L 64.65 5.35 Q 65 5 65.5 5 L 104.5 5 Q 105 5 104.65 5.35 L 85.35 24.65 Q 85 25 84.5 25 Z" fill="#d5e8d4" stroke="#82b366" stroke-width="10" stroke-miterlimit="10" transform="translate(75,0)scale(-1,1)translate(-75,0)" pointer-events="all"/><path d="M 85 45 L 66 45 Q 65 45 65.71 44.29 L 84.29 25.71 Q 85 25 86 25 L 124 25 Q 125 25 124.29 25.71 L 105.71 44.29 Q 105 45 104 45 Z" fill="#d5e8d4" stroke="#82b366" stroke-width="10" stroke-miterlimit="10" transform="translate(95,0)scale(-1,1)translate(-95,0)" pointer-events="all"/><rect x="85" y="85" width="40" height="40" rx="3.2" ry="3.2" fill="#dae8fc" stroke="#6c8ebf" stroke-width="10" pointer-events="all"/><rect x="25" y="25" width="40" height="40" rx="0.4" ry="0.4" fill="#dae8fc" stroke="#6c8ebf" stroke-width="10" pointer-events="all"/><path d="M 45 85 L 25.5 85 Q 25 85 25.35 84.65 L 44.65 65.35 Q 45 65 45.5 65 L 84.5 65 Q 85 65 84.65 65.35 L 65.35 84.65 Q 65 85 64.5 85 Z" fill="#d5e8d4" stroke="#82b366" stroke-width="10" stroke-miterlimit="10" transform="translate(55,0)scale(-1,1)translate(-55,0)" pointer-events="all"/><path d="M 65 65 L 45.5 65 Q 45 65 45.35 64.65 L 64.65 45.35 Q 65 45 65.5 45 L 104.5 45 Q 105 45 104.65 45.35 L 85.35 64.65 Q 85 65 84.5 65 Z" fill="#f8cecc" stroke="#b85450" stroke-width="10" stroke-miterlimit="10" transform="rotate(-90,75,55)" pointer-events="all"/><rect x="45" y="85" width="40" height="40" rx="3.2" ry="3.2" fill="#dae8fc" stroke="#6c8ebf" stroke-width="10" pointer-events="all"/><rect x="85" y="45" width="40" height="40" rx="3.2" ry="3.2" fill="#dae8fc" stroke="#6c8ebf" stroke-width="10" pointer-events="all"/></g></svg>