<?xml version="1.0" encoding="UTF-8"?>
<!DOCTYPE svg PUBLIC "-//W3C//DTD SVG 1.1//EN" "http://www.w3.org/Graphics/SVG/1.1/DTD/svg11.dtd">
<svg xmlns="http://www.w3.org/2000/svg" xmlns:xlink="http://www.w3.org/1999/xlink" version="1.1" width="130px" height="130px" viewBox="-0.5 -0.5 130 130"><defs/><g><path d="M 5 44 L -10.5 44 Q -15 44 -11.82 40.82 L 1.82 27.18 Q 5 24 9.5 24 L 40.5 24 Q 45 24 41.82 27.18 L 28.18 40.82 Q 25 44 20.5 44 Z" fill="#f8cecc" stroke="#b85450" stroke-width="10" stroke-miterlimit="10" transform="rotate(-90,15,34)" pointer-events="all"/><path d="M 25 64 L 5 64 Q 5 64 5 64 L 25 44 Q 25 44 25 44 L 65 44 Q 65 44 65 44 L 45 64 Q 45 64 45 64 Z" fill="#f8cecc" stroke="#b85450" stroke-width="10" stroke-miterlimit="10" transform="rotate(-90,35,54)" pointer-events="all"/><path d="M 25 24 L 6 24 Q 5 24 5.71 23.29 L 24.29 4.71 Q 25 4 26 4 L 64 4 Q 65 4 64.29 4.71 L 45.71 23.29 Q 45 24 44 24 Z" fill="#d5e8d4" stroke="#82b366" stroke-width="10" stroke-miterlimit="10" transform="translate(35,0)scale(-1,1)translate(-35,0)" pointer-events="all"/><path d="M 45 44 L 28 44 Q 25 44 27.12 41.88 L 42.88 26.12 Q 45 24 48 24 L 82 24 Q 85 24 82.88 26.12 L 67.12 41.88 Q 65 44 62 44 Z" fill="#d5e8d4" stroke="#82b366" stroke-width="10" stroke-miterlimit="10" transform="translate(55,0)scale(-1,1)translate(-55,0)" pointer-events="all"/><path d="M 5 84 L -10.5 84 Q -15 84 -11.82 80.82 L 1.82 67.18 Q 5 64 9.5 64 L 40.5 64 Q 45 64 41.82 67.18 L 28.18 80.82 Q 25 84 20.5 84 Z" fill="#f8cecc" stroke="#b85450" stroke-width="10" stroke-miterlimit="10" transform="rotate(-90,15,74)" pointer-events="all"/><path d="M 25 104 L 9.5 104 Q 5 104 8.18 100.82 L 21.82 87.18 Q 25 84 29.5 84 L 60.5 84 Q 65 84 61.82 87.18 L 48.18 100.82 Q 45 104 40.5 104 Z" fill="#f8cecc" stroke="#b85450" stroke-width="10" stroke-miterlimit="10" transform="rotate(-90,35,94)" pointer-events="all"/><path d="M 65 24 L 46 24 Q 45 24 45.71 23.29 L 64.29 4.71 Q 65 4 66 4 L 104 4 Q 105 4 104.29 4.71 L 85.71 23.29 Q 85 24 84 24 Z" fill="#d5e8d4" stroke="#82b366" stroke-width="10" stroke-miterlimit="10" transform="translate(75,0)scale(-1,1)translate(-75,0)" pointer-events="all"/><path d="M 85 44 L 66 44 Q 65 44 65.71 43.29 L 84.29 24.71 Q 85 24 86 24 L 124 24 Q 125 24 124.29 24.71 L 105.71 43.29 Q 105 44 104 44 Z" fill="#d5e8d4" stroke="#82b366" stroke-width="10" stroke-miterlimit="10" transform="translate(95,0)scale(-1,1)translate(-95,0)" pointer-events="all"/><rect x="45" y="44" width="40" height="40" rx="3.2" ry="3.2" fill="#dae8fc" stroke="#6c8ebf" stroke-width="10" pointer-events="all"/><rect x="85" y="44" width="40" height="40" rx="3.2" ry="3.2" fill="#dae8fc" stroke="#6c8ebf" stroke-width="10" pointer-events="all"/><rect x="45" y="84" width="40" height="40" rx="3.2" ry="3.2" fill="#dae8fc" stroke="#6c8ebf" stroke-width="10" pointer-events="all"/><rect x="85" y="84" width="40" height="40" rx="3.2" ry="3.2" fill="#dae8fc" stroke="#6c8ebf" stroke-width="10" pointer-events="all"/></g></svg>